M48
; DRILL file KiCad 10.0.3 date 2026-07-25T14:43:45
; FORMAT={-:-/ absolute / metric / decimal}
; #@! TF.CreationDate,2026-07-25T14:43:45+03:00
; #@! TF.GenerationSoftware,Kicad,Pcbnew,10.0.3
; #@! TF.FileFunction,Plated,1,2,PTH
FMAT,2
METRIC
; #@! TA.AperFunction,Plated,PTH,ComponentDrill
T1C1.500
%
G90
G05
T1
X33.565Y-55.602
X33.565Y-141.98
X33.714Y-99.517
X39.915Y-53.062
X39.915Y-139.44
X40.064Y-96.977
X44.506Y-121.426
X44.565Y-77.98
X50.856Y-118.886
X50.915Y-75.44
X53.081Y-141.615
X53.208Y-55.602
X53.211Y-99.629
X59.431Y-139.075
X59.558Y-53.062
X59.561Y-97.089
X64.105Y-121.197
X64.251Y-78.084
X70.455Y-118.657
X70.601Y-75.544
X72.82Y-142.184
X72.852Y-55.602
X72.992Y-99.517
X79.17Y-139.644
X79.202Y-53.062
X79.342Y-96.977
X83.682Y-121.361
X83.919Y-78.084
X90.032Y-118.821
X90.269Y-75.544
X92.381Y-99.517
X92.432Y-141.893
X92.496Y-55.602
X98.731Y-96.977
X98.782Y-139.353
X98.846Y-53.062
X103.414Y-121.261
X103.486Y-78.136
X109.764Y-118.721
X109.836Y-75.596
X111.863Y-141.733
X112.14Y-55.602
X112.175Y-99.517
X118.213Y-139.193
X118.49Y-53.062
X118.525Y-96.977
X123.185Y-78.17
X123.212Y-120.996
X129.535Y-75.63
X129.562Y-118.456
X131.154Y-141.696
X131.61Y-99.46
X131.783Y-55.602
X137.504Y-139.156
X137.96Y-96.92
X138.133Y-53.062
X142.647Y-78.267
X142.697Y-121.015
X148.997Y-75.727
X149.047Y-118.475
X150.715Y-141.421
X151.427Y-55.602
X151.755Y-99.517
X157.065Y-138.881
X157.777Y-53.062
X158.105Y-96.977
X162.41Y-121.254
X162.424Y-78.087
X168.76Y-118.714
X168.774Y-75.547
X170.325Y-141.483
X171.071Y-55.602
X171.256Y-99.387
X176.675Y-138.943
X177.421Y-53.062
X177.606Y-96.847
X181.953Y-121.154
X182.175Y-77.93
X188.303Y-118.614
X188.525Y-75.39
X189.779Y-141.573
X190.676Y-99.48
X190.715Y-55.602
X196.129Y-139.033
X197.026Y-96.94
X197.065Y-53.062
X201.668Y-120.995
X202.037Y-78.062
X208.018Y-118.455
X208.387Y-75.522
X209.506Y-141.552
X210.459Y-99.385
X210.565Y-55.48
X215.856Y-139.012
X216.809Y-96.845
X216.915Y-52.94
X221.113Y-120.836
X221.615Y-77.898
X227.463Y-118.296
X227.965Y-75.358
M30
