%TF.GenerationSoftware,KiCad,Pcbnew,10.0.3*%
%TF.CreationDate,2026-07-25T14:42:43+03:00*%
%TF.ProjectId,cyberdeck radio,63796265-7264-4656-936b-20726164696f,rev?*%
%TF.SameCoordinates,Original*%
%TF.FileFunction,Copper,L1,Top*%
%TF.FilePolarity,Positive*%
%FSLAX46Y46*%
G04 Gerber Fmt 4.6, Leading zero omitted, Abs format (unit mm)*
G04 Created by KiCad (PCBNEW 10.0.3) date 2026-07-25 14:42:43*
%MOMM*%
%LPD*%
G01*
G04 APERTURE LIST*
G04 Aperture macros list*
%AMRoundRect*
0 Rectangle with rounded corners*
0 $1 Rounding radius*
0 $2 $3 $4 $5 $6 $7 $8 $9 X,Y pos of 4 corners*
0 Add a 4 corners polygon primitive as box body*
4,1,4,$2,$3,$4,$5,$6,$7,$8,$9,$2,$3,0*
0 Add four circle primitives for the rounded corners*
1,1,$1+$1,$2,$3*
1,1,$1+$1,$4,$5*
1,1,$1+$1,$6,$7*
1,1,$1+$1,$8,$9*
0 Add four rect primitives between the rounded corners*
20,1,$1+$1,$2,$3,$4,$5,0*
20,1,$1+$1,$4,$5,$6,$7,0*
20,1,$1+$1,$6,$7,$8,$9,0*
20,1,$1+$1,$8,$9,$2,$3,0*%
G04 Aperture macros list end*
%TA.AperFunction,SMDPad,CuDef*%
%ADD10RoundRect,0.250000X-0.500000X-1.100000X0.500000X-1.100000X0.500000X1.100000X-0.500000X1.100000X0*%
%TD*%
%TA.AperFunction,ComponentPad*%
%ADD11C,2.200000*%
%TD*%
%TA.AperFunction,SMDPad,CuDef*%
%ADD12RoundRect,0.075000X-0.437500X-0.075000X0.437500X-0.075000X0.437500X0.075000X-0.437500X0.075000X0*%
%TD*%
%TA.AperFunction,SMDPad,CuDef*%
%ADD13RoundRect,0.075000X-0.075000X-0.437500X0.075000X-0.437500X0.075000X0.437500X-0.075000X0.437500X0*%
%TD*%
%TA.AperFunction,HeatsinkPad*%
%ADD14R,4.250000X4.250000*%
%TD*%
%TA.AperFunction,Conductor*%
%ADD15C,0.200000*%
%TD*%
G04 APERTURE END LIST*
D10*
%TO.P,D21,1,K_1*%
%TO.N,row3*%
X35164647Y-111980471D03*
%TO.P,D21,2,A_2*%
%TO.N,Net-(D21-A)*%
X39964647Y-111980471D03*
%TD*%
%TO.P,D32,1,K_1*%
%TO.N,row4*%
X65509147Y-133034028D03*
%TO.P,D32,2,A_2*%
%TO.N,Net-(D32-A)*%
X70309147Y-133034028D03*
%TD*%
%TO.P,D11,1,K_1*%
%TO.N,row2*%
X45699386Y-89763391D03*
%TO.P,D11,2,A_2*%
%TO.N,Net-(D11-A)*%
X50499386Y-89763391D03*
%TD*%
D11*
%TO.P,SW36,1,1_1*%
%TO.N,colum6*%
X149047296Y-118475240D03*
%TO.P,SW36,2,2_2*%
%TO.N,Net-(D36-A)*%
X142697296Y-121015240D03*
%TD*%
%TO.P,SW44,1,1_1*%
%TO.N,colum3*%
X79169802Y-139643792D03*
%TO.P,SW44,2,2_2*%
%TO.N,Net-(D44-A)*%
X72819802Y-142183792D03*
%TD*%
D10*
%TO.P,D31,1,K_1*%
%TO.N,row4*%
X46498554Y-133237350D03*
%TO.P,D31,2,A_2*%
%TO.N,Net-(D31-A)*%
X51298554Y-133237350D03*
%TD*%
D11*
%TO.P,SW41,1,1_1*%
%TO.N,colum10*%
X227462986Y-118295764D03*
%TO.P,SW41,2,2_2*%
%TO.N,Net-(D41-A)*%
X221112986Y-120835764D03*
%TD*%
D10*
%TO.P,D19,1,K_1*%
%TO.N,row2*%
X203120976Y-89843096D03*
%TO.P,D19,2,A_2*%
%TO.N,Net-(D19-A)*%
X207920976Y-89843096D03*
%TD*%
D11*
%TO.P,SW47,1,1_1*%
%TO.N,colum6*%
X137503991Y-139156108D03*
%TO.P,SW47,2,2_2*%
%TO.N,Net-(D47-A)*%
X131153991Y-141696108D03*
%TD*%
D10*
%TO.P,D36,1,K_1*%
%TO.N,row4*%
X143845060Y-132536315D03*
%TO.P,D36,2,A_2*%
%TO.N,Net-(D36-A)*%
X148645060Y-132536315D03*
%TD*%
D11*
%TO.P,SW46,1,1_1*%
%TO.N,colum5*%
X118212662Y-139192986D03*
%TO.P,SW46,2,2_2*%
%TO.N,Net-(D46-A)*%
X111862662Y-141732986D03*
%TD*%
%TO.P,SW32,1,1_1*%
%TO.N,colum2*%
X70455390Y-118657240D03*
%TO.P,SW32,2,2_2*%
%TO.N,Net-(D32-A)*%
X64105390Y-121197240D03*
%TD*%
D10*
%TO.P,D42,1,K_1*%
%TO.N,row5*%
X34803387Y-154019180D03*
%TO.P,D42,2,A_2*%
%TO.N,Net-(D42-A)*%
X39603387Y-154019180D03*
%TD*%
%TO.P,D1,1,K_1*%
%TO.N,row1*%
X34664647Y-67480471D03*
%TO.P,D1,2,A_2*%
%TO.N,Net-(D1-A)*%
X39464647Y-67480471D03*
%TD*%
D11*
%TO.P,SW12,1,1_1*%
%TO.N,colum2*%
X70600581Y-75543799D03*
%TO.P,SW12,2,2_2*%
%TO.N,Net-(D12-A)*%
X64250581Y-78083799D03*
%TD*%
D10*
%TO.P,D22,1,K_1*%
%TO.N,row3*%
X55504445Y-111543587D03*
%TO.P,D22,2,A_2*%
%TO.N,Net-(D22-A)*%
X60304445Y-111543587D03*
%TD*%
D12*
%TO.P,U2,1,GPB4_1*%
%TO.N,colum8*%
X28727147Y-78030471D03*
%TO.P,U2,2,GPB5_2*%
%TO.N,colum9*%
X28727147Y-78680471D03*
%TO.P,U2,3,GPB6_3*%
%TO.N,colum10*%
X28727147Y-79330471D03*
%TO.P,U2,4,GPB7_4*%
%TO.N,unconnected-(U2-GPB7-Pad4)*%
X28727147Y-79980471D03*
%TO.P,U2,5,V_{DD}_5*%
%TO.N,+3.3V*%
X28727147Y-80630471D03*
%TO.P,U2,6,V_{SS}_6*%
%TO.N,Net-(U2-V_{SS})*%
X28727147Y-81280471D03*
%TO.P,U2,7,NC_7*%
%TO.N,unconnected-(U2-NC-Pad7)*%
X28727147Y-81930471D03*
D13*
%TO.P,U2,8,SCK_8*%
%TO.N,Net-(U2-SCK)*%
X29614647Y-82817971D03*
%TO.P,U2,9,SDA_9*%
%TO.N,Net-(U2-SDA)*%
X30264647Y-82817971D03*
%TO.P,U2,10,NC_10*%
%TO.N,unconnected-(U2-NC-Pad10)*%
X30914647Y-82817971D03*
%TO.P,U2,11,A0_11*%
%TO.N,+3.3V*%
X31564647Y-82817971D03*
%TO.P,U2,12,A1_12*%
X32214647Y-82817971D03*
%TO.P,U2,13,A2_13*%
X32864647Y-82817971D03*
%TO.P,U2,14,~{RESET}_14*%
X33514647Y-82817971D03*
D12*
%TO.P,U2,15,INTB_15*%
%TO.N,unconnected-(U2-INTB-Pad15)*%
X34402147Y-81930471D03*
%TO.P,U2,16,INTA_16*%
%TO.N,unconnected-(U2-INTA-Pad16)*%
X34402147Y-81280471D03*
%TO.P,U2,17,GPA0_17*%
%TO.N,row5*%
X34402147Y-80630471D03*
%TO.P,U2,18,GPA1_18*%
%TO.N,row4*%
X34402147Y-79980471D03*
%TO.P,U2,19,GPA2_19*%
%TO.N,row3*%
X34402147Y-79330471D03*
%TO.P,U2,20,GPA3_20*%
%TO.N,row2*%
X34402147Y-78680471D03*
%TO.P,U2,21,GPA4_21*%
%TO.N,row1*%
X34402147Y-78030471D03*
D13*
%TO.P,U2,22,GPA5_22*%
%TO.N,colum1*%
X33514647Y-77142971D03*
%TO.P,U2,23,GPA6_23*%
%TO.N,colum2*%
X32864647Y-77142971D03*
%TO.P,U2,24,GPA7_24*%
%TO.N,colum3*%
X32214647Y-77142971D03*
%TO.P,U2,25,GPB0_25*%
%TO.N,colum4*%
X31564647Y-77142971D03*
%TO.P,U2,26,GPB1_26*%
%TO.N,colum5*%
X30914647Y-77142971D03*
%TO.P,U2,27,GPB2_27*%
%TO.N,colum6*%
X30264647Y-77142971D03*
%TO.P,U2,28,GPB3_28*%
%TO.N,colum7*%
X29614647Y-77142971D03*
D14*
%TO.P,U2,29,EP_29*%
%TO.N,unconnected-(U2-EP-Pad29)*%
X31564647Y-79980471D03*
%TD*%
D11*
%TO.P,SW25,1,1_1*%
%TO.N,colum5*%
X118524647Y-96977185D03*
%TO.P,SW25,2,2_2*%
%TO.N,Net-(D25-A)*%
X112174647Y-99517185D03*
%TD*%
D10*
%TO.P,D25,1,K_1*%
%TO.N,row3*%
X116365918Y-111694233D03*
%TO.P,D25,2,A_2*%
%TO.N,Net-(D25-A)*%
X121165918Y-111694233D03*
%TD*%
%TO.P,D15,1,K_1*%
%TO.N,row2*%
X124547634Y-90303370D03*
%TO.P,D15,2,A_2*%
%TO.N,Net-(D15-A)*%
X129347634Y-90303370D03*
%TD*%
D11*
%TO.P,SW4,1,1_1*%
%TO.N,colum4*%
X98845897Y-53062386D03*
%TO.P,SW4,2,2_2*%
%TO.N,Net-(D4-A)*%
X92495897Y-55602386D03*
%TD*%
D10*
%TO.P,D23,1,K_1*%
%TO.N,row3*%
X75695848Y-111609498D03*
%TO.P,D23,2,A_2*%
%TO.N,Net-(D23-A)*%
X80495848Y-111609498D03*
%TD*%
D11*
%TO.P,SW26,1,1_1*%
%TO.N,colum6*%
X137960000Y-96920000D03*
%TO.P,SW26,2,2_2*%
%TO.N,Net-(D26-A)*%
X131610000Y-99460000D03*
%TD*%
D10*
%TO.P,D41,1,K_1*%
%TO.N,row4*%
X222179250Y-133063235D03*
%TO.P,D41,2,A_2*%
%TO.N,Net-(D41-A)*%
X226979250Y-133063235D03*
%TD*%
D11*
%TO.P,SW38,1,1_1*%
%TO.N,colum8*%
X188303026Y-118613789D03*
%TO.P,SW38,2,2_2*%
%TO.N,Net-(D38-A)*%
X181953026Y-121153789D03*
%TD*%
%TO.P,SW10,1,1_1*%
%TO.N,colum10*%
X216914647Y-52940471D03*
%TO.P,SW10,2,2_2*%
%TO.N,Net-(D10-A)*%
X210564647Y-55480471D03*
%TD*%
%TO.P,SW8,1,1_1*%
%TO.N,colum8*%
X177420897Y-53062386D03*
%TO.P,SW8,2,2_2*%
%TO.N,Net-(D8-A)*%
X171070897Y-55602386D03*
%TD*%
D10*
%TO.P,D47,1,K_1*%
%TO.N,row5*%
X132581578Y-153718588D03*
%TO.P,D47,2,A_2*%
%TO.N,Net-(D47-A)*%
X137381578Y-153718588D03*
%TD*%
D11*
%TO.P,SW51,1,1_1*%
%TO.N,colum10*%
X215856259Y-139012404D03*
%TO.P,SW51,2,2_2*%
%TO.N,Net-(D51-A)*%
X209506259Y-141552404D03*
%TD*%
D10*
%TO.P,D8,1,K_1*%
%TO.N,row1*%
X172164647Y-66980471D03*
%TO.P,D8,2,A_2*%
%TO.N,Net-(D8-A)*%
X176964647Y-66980471D03*
%TD*%
%TO.P,D37,1,K_1*%
%TO.N,row4*%
X164073296Y-133725034D03*
%TO.P,D37,2,A_2*%
%TO.N,Net-(D37-A)*%
X168873296Y-133725034D03*
%TD*%
%TO.P,D29,1,K_1*%
%TO.N,row3*%
X198307486Y-111714570D03*
%TO.P,D29,2,A_2*%
%TO.N,Net-(D29-A)*%
X203107486Y-111714570D03*
%TD*%
%TO.P,D45,1,K_1*%
%TO.N,row5*%
X93740834Y-154098892D03*
%TO.P,D45,2,A_2*%
%TO.N,Net-(D45-A)*%
X98540834Y-154098892D03*
%TD*%
D11*
%TO.P,SW23,1,1_1*%
%TO.N,colum3*%
X79341748Y-96977185D03*
%TO.P,SW23,2,2_2*%
%TO.N,Net-(D23-A)*%
X72991748Y-99517185D03*
%TD*%
%TO.P,SW42,1,1_1*%
%TO.N,colum1*%
X39914647Y-139440471D03*
%TO.P,SW42,2,2_2*%
%TO.N,Net-(D42-A)*%
X33564647Y-141980471D03*
%TD*%
%TO.P,SW45,1,1_1*%
%TO.N,colum4*%
X98781773Y-139353131D03*
%TO.P,SW45,2,2_2*%
%TO.N,Net-(D45-A)*%
X92431773Y-141893131D03*
%TD*%
D10*
%TO.P,D6,1,K_1*%
%TO.N,row1*%
X133164647Y-66980471D03*
%TO.P,D6,2,A_2*%
%TO.N,Net-(D6-A)*%
X137964647Y-66980471D03*
%TD*%
D11*
%TO.P,SW15,1,1_1*%
%TO.N,colum5*%
X129534721Y-75630471D03*
%TO.P,SW15,2,2_2*%
%TO.N,Net-(D15-A)*%
X123184721Y-78170471D03*
%TD*%
D10*
%TO.P,D48,1,K_1*%
%TO.N,row5*%
X152266804Y-153325942D03*
%TO.P,D48,2,A_2*%
%TO.N,Net-(D48-A)*%
X157066804Y-153325942D03*
%TD*%
%TO.P,D28,1,K_1*%
%TO.N,row3*%
X177697319Y-111467825D03*
%TO.P,D28,2,A_2*%
%TO.N,Net-(D28-A)*%
X182497319Y-111467825D03*
%TD*%
%TO.P,D35,1,K_1*%
%TO.N,row4*%
X124619147Y-133004716D03*
%TO.P,D35,2,A_2*%
%TO.N,Net-(D35-A)*%
X129419147Y-133004716D03*
%TD*%
%TO.P,D24,1,K_1*%
%TO.N,row3*%
X96189488Y-111496584D03*
%TO.P,D24,2,A_2*%
%TO.N,Net-(D24-A)*%
X100989488Y-111496584D03*
%TD*%
D11*
%TO.P,SW18,1,1_1*%
%TO.N,colum8*%
X188524647Y-75390020D03*
%TO.P,SW18,2,2_2*%
%TO.N,Net-(D18-A)*%
X182174647Y-77930020D03*
%TD*%
%TO.P,SW50,1,1_1*%
%TO.N,colum9*%
X196129391Y-139033338D03*
%TO.P,SW50,2,2_2*%
%TO.N,Net-(D50-A)*%
X189779391Y-141573338D03*
%TD*%
%TO.P,SW48,1,1_1*%
%TO.N,colum7*%
X157064647Y-138880709D03*
%TO.P,SW48,2,2_2*%
%TO.N,Net-(D48-A)*%
X150714647Y-141420709D03*
%TD*%
%TO.P,SW3,1,1_1*%
%TO.N,colum3*%
X79202147Y-53062386D03*
%TO.P,SW3,2,2_2*%
%TO.N,Net-(D3-A)*%
X72852147Y-55602386D03*
%TD*%
%TO.P,SW1,1,1_1*%
%TO.N,colum1*%
X39914647Y-53062386D03*
%TO.P,SW1,2,2_2*%
%TO.N,Net-(D1-A)*%
X33564647Y-55602386D03*
%TD*%
%TO.P,SW17,1,1_1*%
%TO.N,colum7*%
X168773590Y-75546578D03*
%TO.P,SW17,2,2_2*%
%TO.N,Net-(D17-A)*%
X162423590Y-78086578D03*
%TD*%
%TO.P,SW6,1,1_1*%
%TO.N,colum6*%
X138133397Y-53062386D03*
%TO.P,SW6,2,2_2*%
%TO.N,Net-(D6-A)*%
X131783397Y-55602386D03*
%TD*%
D10*
%TO.P,D7,1,K_1*%
%TO.N,row1*%
X152664647Y-66980471D03*
%TO.P,D7,2,A_2*%
%TO.N,Net-(D7-A)*%
X157464647Y-66980471D03*
%TD*%
D11*
%TO.P,SW5,1,1_1*%
%TO.N,colum5*%
X118489647Y-53062386D03*
%TO.P,SW5,2,2_2*%
%TO.N,Net-(D5-A)*%
X112139647Y-55602386D03*
%TD*%
%TO.P,SW29,1,1_1*%
%TO.N,colum9*%
X197025661Y-96940471D03*
%TO.P,SW29,2,2_2*%
%TO.N,Net-(D29-A)*%
X190675661Y-99480471D03*
%TD*%
%TO.P,SW13,1,1_1*%
%TO.N,colum3*%
X90268833Y-75543799D03*
%TO.P,SW13,2,2_2*%
%TO.N,Net-(D13-A)*%
X83918833Y-78083799D03*
%TD*%
D10*
%TO.P,D18,1,K_1*%
%TO.N,row2*%
X183522762Y-89980471D03*
%TO.P,D18,2,A_2*%
%TO.N,Net-(D18-A)*%
X188322762Y-89980471D03*
%TD*%
D11*
%TO.P,SW20,1,1_1*%
%TO.N,colum10*%
X227964781Y-75357898D03*
%TO.P,SW20,2,2_2*%
%TO.N,Net-(D20-A)*%
X221614781Y-77897898D03*
%TD*%
D10*
%TO.P,D27,1,K_1*%
%TO.N,row3*%
X157257489Y-111648584D03*
%TO.P,D27,2,A_2*%
%TO.N,Net-(D27-A)*%
X162057489Y-111648584D03*
%TD*%
%TO.P,D49,1,K_1*%
%TO.N,row5*%
X171927680Y-153568327D03*
%TO.P,D49,2,A_2*%
%TO.N,Net-(D49-A)*%
X176727680Y-153568327D03*
%TD*%
D11*
%TO.P,SW16,1,1_1*%
%TO.N,colum6*%
X148996945Y-75727188D03*
%TO.P,SW16,2,2_2*%
%TO.N,Net-(D16-A)*%
X142646945Y-78267188D03*
%TD*%
%TO.P,SW21,1,1_1*%
%TO.N,colum1*%
X40063777Y-96977185D03*
%TO.P,SW21,2,2_2*%
%TO.N,Net-(D21-A)*%
X33713777Y-99517185D03*
%TD*%
D10*
%TO.P,D10,1,K_1*%
%TO.N,row1*%
X212164647Y-66980471D03*
%TO.P,D10,2,A_2*%
%TO.N,Net-(D10-A)*%
X216964647Y-66980471D03*
%TD*%
%TO.P,D14,1,K_1*%
%TO.N,row2*%
X105028545Y-90166249D03*
%TO.P,D14,2,A_2*%
%TO.N,Net-(D14-A)*%
X109828545Y-90166249D03*
%TD*%
D11*
%TO.P,SW31,1,1_1*%
%TO.N,colum1*%
X50856188Y-118885951D03*
%TO.P,SW31,2,2_2*%
%TO.N,Net-(D31-A)*%
X44506188Y-121425951D03*
%TD*%
%TO.P,SW9,1,1_1*%
%TO.N,colum9*%
X197064647Y-53062386D03*
%TO.P,SW9,2,2_2*%
%TO.N,Net-(D9-A)*%
X190714647Y-55602386D03*
%TD*%
D10*
%TO.P,D3,1,K_1*%
%TO.N,row1*%
X74164647Y-66980471D03*
%TO.P,D3,2,A_2*%
%TO.N,Net-(D3-A)*%
X78964647Y-66980471D03*
%TD*%
%TO.P,D44,1,K_1*%
%TO.N,row5*%
X74116489Y-154028562D03*
%TO.P,D44,2,A_2*%
%TO.N,Net-(D44-A)*%
X78916489Y-154028562D03*
%TD*%
D11*
%TO.P,SW30,1,1_1*%
%TO.N,colum10*%
X216808830Y-96845325D03*
%TO.P,SW30,2,2_2*%
%TO.N,Net-(D30-A)*%
X210458830Y-99385325D03*
%TD*%
D10*
%TO.P,D34,1,K_1*%
%TO.N,row4*%
X104707830Y-133481808D03*
%TO.P,D34,2,A_2*%
%TO.N,Net-(D34-A)*%
X109507830Y-133481808D03*
%TD*%
D11*
%TO.P,SW43,1,1_1*%
%TO.N,colum2*%
X59430974Y-139075068D03*
%TO.P,SW43,2,2_2*%
%TO.N,Net-(D43-A)*%
X53080974Y-141615068D03*
%TD*%
%TO.P,SW37,1,1_1*%
%TO.N,colum7*%
X168759557Y-118714232D03*
%TO.P,SW37,2,2_2*%
%TO.N,Net-(D37-A)*%
X162409557Y-121254232D03*
%TD*%
%TO.P,SW22,1,1_1*%
%TO.N,colum2*%
X59561373Y-97088753D03*
%TO.P,SW22,2,2_2*%
%TO.N,Net-(D22-A)*%
X53211373Y-99628753D03*
%TD*%
D10*
%TO.P,D16,1,K_1*%
%TO.N,row2*%
X143958455Y-90157742D03*
%TO.P,D16,2,A_2*%
%TO.N,Net-(D16-A)*%
X148758455Y-90157742D03*
%TD*%
%TO.P,D46,1,K_1*%
%TO.N,row5*%
X113305500Y-153789171D03*
%TO.P,D46,2,A_2*%
%TO.N,Net-(D46-A)*%
X118105500Y-153789171D03*
%TD*%
D11*
%TO.P,SW34,1,1_1*%
%TO.N,colum4*%
X109764193Y-118721051D03*
%TO.P,SW34,2,2_2*%
%TO.N,Net-(D34-A)*%
X103414193Y-121261051D03*
%TD*%
D10*
%TO.P,D12,1,K_1*%
%TO.N,row2*%
X65661789Y-90087481D03*
%TO.P,D12,2,A_2*%
%TO.N,Net-(D12-A)*%
X70461789Y-90087481D03*
%TD*%
%TO.P,D33,1,K_1*%
%TO.N,row4*%
X85064647Y-132980471D03*
%TO.P,D33,2,A_2*%
%TO.N,Net-(D33-A)*%
X89864647Y-132980471D03*
%TD*%
%TO.P,D2,1,K_1*%
%TO.N,row1*%
X54664647Y-66980471D03*
%TO.P,D2,2,A_2*%
%TO.N,Net-(D2-A)*%
X59464647Y-66980471D03*
%TD*%
%TO.P,D5,1,K_1*%
%TO.N,row1*%
X113664647Y-66980471D03*
%TO.P,D5,2,A_2*%
%TO.N,Net-(D5-A)*%
X118464647Y-66980471D03*
%TD*%
%TO.P,D38,1,K_1*%
%TO.N,row4*%
X183312159Y-133151911D03*
%TO.P,D38,2,A_2*%
%TO.N,Net-(D38-A)*%
X188112159Y-133151911D03*
%TD*%
D11*
%TO.P,SW40,1,1_1*%
%TO.N,colum9*%
X208018313Y-118454792D03*
%TO.P,SW40,2,2_2*%
%TO.N,Net-(D40-A)*%
X201668313Y-120994792D03*
%TD*%
D10*
%TO.P,D17,1,K_1*%
%TO.N,row2*%
X163691356Y-89987957D03*
%TO.P,D17,2,A_2*%
%TO.N,Net-(D17-A)*%
X168491356Y-89987957D03*
%TD*%
D11*
%TO.P,SW2,1,1_1*%
%TO.N,colum2*%
X59558397Y-53062386D03*
%TO.P,SW2,2,2_2*%
%TO.N,Net-(D2-A)*%
X53208397Y-55602386D03*
%TD*%
%TO.P,SW27,1,1_1*%
%TO.N,colum7*%
X158104647Y-96977185D03*
%TO.P,SW27,2,2_2*%
%TO.N,Net-(D27-A)*%
X151754647Y-99517185D03*
%TD*%
D10*
%TO.P,D40,1,K_1*%
%TO.N,row4*%
X203128754Y-132887114D03*
%TO.P,D40,2,A_2*%
%TO.N,Net-(D40-A)*%
X207928754Y-132887114D03*
%TD*%
%TO.P,D26,1,K_1*%
%TO.N,row3*%
X137209895Y-111619203D03*
%TO.P,D26,2,A_2*%
%TO.N,Net-(D26-A)*%
X142009895Y-111619203D03*
%TD*%
D11*
%TO.P,SW28,1,1_1*%
%TO.N,colum8*%
X177605776Y-96847458D03*
%TO.P,SW28,2,2_2*%
%TO.N,Net-(D28-A)*%
X171255776Y-99387458D03*
%TD*%
D10*
%TO.P,D43,1,K_1*%
%TO.N,row5*%
X54341848Y-153755359D03*
%TO.P,D43,2,A_2*%
%TO.N,Net-(D43-A)*%
X59141848Y-153755359D03*
%TD*%
%TO.P,D51,1,K_1*%
%TO.N,row5*%
X210601391Y-153434008D03*
%TO.P,D51,2,A_2*%
%TO.N,Net-(D51-A)*%
X215401391Y-153434008D03*
%TD*%
D11*
%TO.P,SW24,1,1_1*%
%TO.N,colum4*%
X98730734Y-96977185D03*
%TO.P,SW24,2,2_2*%
%TO.N,Net-(D24-A)*%
X92380734Y-99517185D03*
%TD*%
%TO.P,SW11,1,1_1*%
%TO.N,colum1*%
X50914647Y-75440471D03*
%TO.P,SW11,2,2_2*%
%TO.N,Net-(D11-A)*%
X44564647Y-77980471D03*
%TD*%
%TO.P,SW19,1,1_1*%
%TO.N,colum9*%
X208386951Y-75521729D03*
%TO.P,SW19,2,2_2*%
%TO.N,Net-(D19-A)*%
X202036951Y-78061729D03*
%TD*%
%TO.P,SW7,1,1_1*%
%TO.N,colum7*%
X157777147Y-53062386D03*
%TO.P,SW7,2,2_2*%
%TO.N,Net-(D7-A)*%
X151427147Y-55602386D03*
%TD*%
%TO.P,SW35,1,1_1*%
%TO.N,colum5*%
X129562470Y-118455969D03*
%TO.P,SW35,2,2_2*%
%TO.N,Net-(D35-A)*%
X123212470Y-120995969D03*
%TD*%
D10*
%TO.P,D4,1,K_1*%
%TO.N,row1*%
X93664647Y-66980471D03*
%TO.P,D4,2,A_2*%
%TO.N,Net-(D4-A)*%
X98464647Y-66980471D03*
%TD*%
D11*
%TO.P,SW33,1,1_1*%
%TO.N,colum3*%
X90032070Y-118821232D03*
%TO.P,SW33,2,2_2*%
%TO.N,Net-(D33-A)*%
X83682070Y-121361232D03*
%TD*%
%TO.P,SW14,1,1_1*%
%TO.N,colum4*%
X109835912Y-75596412D03*
%TO.P,SW14,2,2_2*%
%TO.N,Net-(D14-A)*%
X103485912Y-78136412D03*
%TD*%
%TO.P,SW49,1,1_1*%
%TO.N,colum8*%
X176674666Y-138942624D03*
%TO.P,SW49,2,2_2*%
%TO.N,Net-(D49-A)*%
X170324666Y-141482624D03*
%TD*%
D10*
%TO.P,D50,1,K_1*%
%TO.N,row5*%
X190716184Y-153621075D03*
%TO.P,D50,2,A_2*%
%TO.N,Net-(D50-A)*%
X195516184Y-153621075D03*
%TD*%
%TO.P,D30,1,K_1*%
%TO.N,row3*%
X218021558Y-111461315D03*
%TO.P,D30,2,A_2*%
%TO.N,Net-(D30-A)*%
X222821558Y-111461315D03*
%TD*%
%TO.P,D9,1,K_1*%
%TO.N,row1*%
X192164647Y-66480471D03*
%TO.P,D9,2,A_2*%
%TO.N,Net-(D9-A)*%
X196964647Y-66480471D03*
%TD*%
%TO.P,D13,1,K_1*%
%TO.N,row2*%
X85374582Y-89905275D03*
%TO.P,D13,2,A_2*%
%TO.N,Net-(D13-A)*%
X90174582Y-89905275D03*
%TD*%
%TO.P,D20,1,K_1*%
%TO.N,row2*%
X222920686Y-90480471D03*
%TO.P,D20,2,A_2*%
%TO.N,Net-(D20-A)*%
X227720686Y-90480471D03*
%TD*%
%TO.N,row3*%
D15*
X31064647Y-107880471D02*
X35164647Y-111980471D01*
X96189488Y-113605312D02*
X96189488Y-111496584D01*
X214502402Y-114980471D02*
X199564647Y-114980471D01*
X37064647Y-81480472D02*
X37064647Y-90980471D01*
X75695848Y-113849270D02*
X75695848Y-111609498D01*
X55504445Y-111543587D02*
X57941329Y-113980471D01*
X98673375Y-113980471D02*
X116564647Y-113980471D01*
X137564647Y-114480471D02*
X136564647Y-113480471D01*
X160589376Y-114980471D02*
X178064647Y-114980471D01*
X137209895Y-111619203D02*
X140571163Y-114980471D01*
X35164647Y-111980471D02*
X37164647Y-113980471D01*
X116564647Y-113980471D02*
X116365918Y-113781742D01*
X96064647Y-114480471D02*
X96564647Y-113980471D01*
X136564647Y-113480471D02*
X136564647Y-112264451D01*
X199564647Y-114980471D02*
X198307486Y-113723310D01*
X34402147Y-79330471D02*
X34914646Y-79330471D01*
X96564647Y-113980471D02*
X96189488Y-113605312D01*
X116365918Y-111694233D02*
X119152156Y-114480471D01*
X31064647Y-90980471D02*
X31064647Y-107880471D01*
X116365918Y-113781742D02*
X116365918Y-111694233D01*
X75564647Y-113980471D02*
X75695848Y-113849270D01*
X198307486Y-113723310D02*
X198307486Y-111714570D01*
X96189488Y-111496584D02*
X98673375Y-113980471D01*
X181209965Y-114980471D02*
X198064647Y-114980471D01*
X54564647Y-112483385D02*
X55504445Y-111543587D01*
X136564647Y-112264451D02*
X137209895Y-111619203D01*
X140571163Y-114980471D02*
X157064647Y-114980471D01*
X37064647Y-90980471D02*
X31064647Y-90980471D01*
X75695848Y-111609498D02*
X78566821Y-114480471D01*
X157257489Y-114787629D02*
X157257489Y-111648584D01*
X177697319Y-114613143D02*
X177697319Y-111467825D01*
X54564647Y-113980471D02*
X54564647Y-112483385D01*
X198064647Y-114980471D02*
X198307486Y-114737632D01*
X198307486Y-114737632D02*
X198307486Y-111714570D01*
X178064647Y-114980471D02*
X177697319Y-114613143D01*
X218021558Y-111461315D02*
X214502402Y-114980471D01*
X157257489Y-111648584D02*
X160589376Y-114980471D01*
X157064647Y-114980471D02*
X157257489Y-114787629D01*
X37164647Y-113980471D02*
X54564647Y-113980471D01*
X57941329Y-113980471D02*
X75564647Y-113980471D01*
X119152156Y-114480471D02*
X137564647Y-114480471D01*
X34914646Y-79330471D02*
X37064647Y-81480472D01*
X78566821Y-114480471D02*
X96064647Y-114480471D01*
X177697319Y-111467825D02*
X181209965Y-114980471D01*
%TO.N,Net-(D21-A)*%
X39964647Y-111980471D02*
X33713777Y-105729601D01*
X33713777Y-105729601D02*
X33713777Y-99517185D01*
%TO.N,row4*%
X204778754Y-134537114D02*
X220705371Y-134537114D01*
X30807768Y-133237350D02*
X46498554Y-133237350D01*
X67159147Y-134684028D02*
X83361090Y-134684028D01*
X126269147Y-134654716D02*
X141726659Y-134654716D01*
X181089036Y-135375034D02*
X183312159Y-133151911D01*
X36064647Y-83980471D02*
X36564647Y-83480471D01*
X63655825Y-134887350D02*
X65509147Y-133034028D01*
X83361090Y-134684028D02*
X85064647Y-132980471D01*
X35064647Y-83980471D02*
X30564647Y-88480471D01*
X48148554Y-134887350D02*
X63655825Y-134887350D01*
X141726659Y-134654716D02*
X143845060Y-132536315D01*
X201213957Y-134801911D02*
X203128754Y-132887114D01*
X103559167Y-134630471D02*
X86714647Y-134630471D01*
X184962159Y-134801911D02*
X201213957Y-134801911D01*
X143845060Y-132536315D02*
X145495060Y-134186315D01*
X104707830Y-133481808D02*
X103559167Y-134630471D01*
X145495060Y-134186315D02*
X163612015Y-134186315D01*
X65509147Y-133034028D02*
X67159147Y-134684028D01*
X86714647Y-134630471D02*
X85064647Y-132980471D01*
X203128754Y-132887114D02*
X204778754Y-134537114D01*
X36564647Y-83480471D02*
X36564647Y-81580474D01*
X124619147Y-133004716D02*
X126269147Y-134654716D01*
X106357830Y-135131808D02*
X122492055Y-135131808D01*
X183312159Y-133151911D02*
X184962159Y-134801911D01*
X35064647Y-83980471D02*
X36064647Y-83980471D01*
X163612015Y-134186315D02*
X164073296Y-133725034D01*
X34964644Y-79980471D02*
X34402147Y-79980471D01*
X122492055Y-135131808D02*
X124619147Y-133004716D01*
X36564647Y-81580474D02*
X34964644Y-79980471D01*
X104707830Y-133481808D02*
X106357830Y-135131808D01*
X46498554Y-133237350D02*
X48148554Y-134887350D01*
X30564647Y-88480471D02*
X30564647Y-133480471D01*
X165723296Y-135375034D02*
X181089036Y-135375034D01*
X220705371Y-134537114D02*
X222179250Y-133063235D01*
X164073296Y-133725034D02*
X165723296Y-135375034D01*
X34402147Y-79980471D02*
X34914646Y-79980471D01*
X30564647Y-133480471D02*
X30807768Y-133237350D01*
%TO.N,Net-(D32-A)*%
X64105390Y-126830271D02*
X64105390Y-121197240D01*
X70309147Y-133034028D02*
X64105390Y-126830271D01*
%TO.N,row2*%
X197483601Y-95112185D02*
X189022762Y-95112185D01*
X103457313Y-91737481D02*
X105700303Y-93980471D01*
X161564647Y-91807742D02*
X161871572Y-91807742D01*
X183522762Y-93154070D02*
X183522762Y-92980471D01*
X161564647Y-91807742D02*
X162018627Y-91807742D01*
X34402147Y-78680471D02*
X34914646Y-78680471D01*
X162131745Y-91547569D02*
X163691356Y-89987957D01*
X181564647Y-95112185D02*
X183522762Y-93154070D01*
X161871572Y-91807742D02*
X162131745Y-91547569D01*
X165064647Y-95112185D02*
X181564647Y-95112185D01*
X200274124Y-92689948D02*
X197483601Y-95480471D01*
X183522762Y-92980471D02*
X183522762Y-89980471D01*
X82976690Y-91737481D02*
X85091739Y-89622432D01*
X200274124Y-92689948D02*
X202064647Y-94480471D01*
X121684747Y-92600571D02*
X140949941Y-92600571D01*
X82976690Y-91737481D02*
X103457313Y-91737481D01*
X121684747Y-92600571D02*
X124264791Y-90020527D01*
X165064647Y-96485476D02*
X165064647Y-95112185D01*
X62564647Y-91413391D02*
X62888737Y-91737481D01*
X204196361Y-95112185D02*
X217920686Y-95112185D01*
X163691356Y-95112185D02*
X165064647Y-96485476D01*
X161871571Y-91807742D02*
X162131745Y-91547569D01*
X197483601Y-95480471D02*
X197483601Y-95112185D01*
X186891048Y-92980471D02*
X189022762Y-95112185D01*
X200274124Y-92689948D02*
X203120976Y-89843096D01*
X103457313Y-91737481D02*
X104628545Y-90566249D01*
X105700303Y-93980471D02*
X120304847Y-93980471D01*
X183522762Y-92980471D02*
X186891048Y-92980471D01*
X217920686Y-95480471D02*
X222920686Y-90480471D01*
X162018627Y-91807742D02*
X163691356Y-93480471D01*
X47349386Y-91413391D02*
X62564647Y-91413391D01*
X203564647Y-94480471D02*
X204196361Y-95112185D01*
X202064647Y-94480471D02*
X203564647Y-94480471D01*
X62888737Y-91737481D02*
X82976690Y-91737481D01*
X62564647Y-91413391D02*
X64335879Y-91413391D01*
X104628545Y-90566249D02*
X104628545Y-90166249D01*
X145608455Y-91807742D02*
X161564647Y-91807742D01*
X45699386Y-89763391D02*
X47349386Y-91413391D01*
X45533701Y-89299526D02*
X45533701Y-89363391D01*
X120304847Y-93980471D02*
X121684747Y-92600571D01*
X143958455Y-90157742D02*
X145608455Y-91807742D01*
X163691356Y-93480471D02*
X163691356Y-95112185D01*
X140949941Y-92600571D02*
X143675612Y-89874899D01*
X34914646Y-78680471D02*
X45533701Y-89299526D01*
X64335879Y-91413391D02*
X65661789Y-90087481D01*
X217920686Y-95112185D02*
X217920686Y-95480471D01*
%TO.N,Net-(D11-A)*%
X44564647Y-83828652D02*
X44564647Y-77980471D01*
X50499386Y-89763391D02*
X44564647Y-83828652D01*
%TO.N,colum6*%
X131751482Y-46680471D02*
X138133397Y-53062386D01*
X30264647Y-70443211D02*
X26964647Y-67143211D01*
X30264647Y-77142971D02*
X30264647Y-70443211D01*
X26964647Y-48317728D02*
X28601906Y-46680471D01*
X26964647Y-67143211D02*
X26964647Y-48317728D01*
X28601906Y-46680471D02*
X131751482Y-46680471D01*
%TO.N,Net-(D36-A)*%
X142697296Y-126588551D02*
X142697296Y-121015240D01*
X148645060Y-132536315D02*
X142697296Y-126588551D01*
%TO.N,colum3*%
X32214647Y-68630471D02*
X31564647Y-67980471D01*
X31564647Y-67980471D02*
X29498962Y-67980471D01*
X28164647Y-66646156D02*
X28164647Y-48814786D01*
X32214647Y-77142971D02*
X32214647Y-68630471D01*
X28164647Y-48814786D02*
X28998962Y-47980471D01*
X79064647Y-47980471D02*
X79202147Y-48117971D01*
X28998962Y-47980471D02*
X79064647Y-47980471D01*
X79202147Y-48117971D02*
X79202147Y-53062386D01*
X29498962Y-67980471D02*
X28164647Y-66646156D01*
%TO.N,Net-(D44-A)*%
X72819802Y-147931875D02*
X72819802Y-142183792D01*
X78916489Y-154028562D02*
X72819802Y-147931875D01*
%TO.N,Net-(D31-A)*%
X44506188Y-126444984D02*
X44506188Y-121425951D01*
X51298554Y-133237350D02*
X44506188Y-126444984D01*
%TO.N,colum10*%
X27998962Y-44980471D02*
X208954647Y-44980471D01*
X27848962Y-79330471D02*
X27064647Y-78546156D01*
X208954647Y-44980471D02*
X216914647Y-52940471D01*
X25064647Y-47914786D02*
X27998962Y-44980471D01*
X27064647Y-76980471D02*
X28064647Y-76980471D01*
X28064647Y-76980471D02*
X28064647Y-71611843D01*
X28064647Y-71611843D02*
X25064647Y-68611843D01*
X28727147Y-79330471D02*
X27848962Y-79330471D01*
X25064647Y-68611843D02*
X25064647Y-47914786D01*
X27064647Y-78546156D02*
X27064647Y-76980471D01*
%TO.N,Net-(D41-A)*%
X226979250Y-133063235D02*
X221112986Y-127196971D01*
X221112986Y-127196971D02*
X221112986Y-120835764D01*
%TO.N,Net-(D19-A)*%
X207920976Y-89843096D02*
X202036951Y-83959071D01*
X202036951Y-83959071D02*
X202036951Y-78061729D01*
%TO.N,Net-(D47-A)*%
X137381578Y-153718588D02*
X131153991Y-147491001D01*
X131153991Y-147491001D02*
X131153991Y-141696108D01*
%TO.N,colum5*%
X30914647Y-77142971D02*
X30914647Y-70527527D01*
X27364647Y-48483414D02*
X28767591Y-47080471D01*
X30914647Y-70527527D02*
X27364647Y-66977526D01*
X27364647Y-66977526D02*
X27364647Y-48483414D01*
X112507732Y-47080471D02*
X118489647Y-53062386D01*
X28767591Y-47080471D02*
X112507732Y-47080471D01*
%TO.N,Net-(D46-A)*%
X118105500Y-153789171D02*
X111862662Y-147546333D01*
X111862662Y-147546333D02*
X111862662Y-141732986D01*
%TO.N,colum2*%
X28564647Y-66480471D02*
X28564647Y-48980471D01*
X28564647Y-48980471D02*
X55476482Y-48980471D01*
X32864647Y-68280471D02*
X32064647Y-67480471D01*
X55476482Y-48980471D02*
X59558397Y-53062386D01*
X32064647Y-67480471D02*
X29564647Y-67480471D01*
X32864647Y-77142971D02*
X32864647Y-68280471D01*
X29564647Y-67480471D02*
X28564647Y-66480471D01*
%TO.N,row5*%
X208764324Y-155271075D02*
X192366184Y-155271075D01*
X72739692Y-155405359D02*
X55991848Y-155405359D01*
X34803387Y-154019180D02*
X36453387Y-155669180D01*
X190716184Y-153621075D02*
X189118932Y-155218327D01*
X29064647Y-89414785D02*
X29064647Y-153980471D01*
X95390834Y-155748892D02*
X93740834Y-154098892D01*
X29103356Y-154019180D02*
X34803387Y-154019180D01*
X111345779Y-155748892D02*
X95390834Y-155748892D01*
X93740834Y-154098892D02*
X92161164Y-155678562D01*
X130860995Y-155439171D02*
X114955500Y-155439171D01*
X36031804Y-83447628D02*
X36014647Y-83430471D01*
X210601391Y-153434008D02*
X208764324Y-155271075D01*
X29064647Y-153980471D02*
X29103356Y-154019180D01*
X132581578Y-153718588D02*
X130860995Y-155439171D01*
X52428027Y-155669180D02*
X54341848Y-153755359D01*
X134231578Y-155368588D02*
X132581578Y-153718588D01*
X36164647Y-81880472D02*
X36164647Y-83314785D01*
X34914646Y-80630471D02*
X36164647Y-81880472D01*
X36014647Y-83430471D02*
X35048961Y-83430471D01*
X55991848Y-155405359D02*
X54341848Y-153755359D01*
X92161164Y-155678562D02*
X75766489Y-155678562D01*
X36453387Y-155669180D02*
X52428027Y-155669180D01*
X36164647Y-83314785D02*
X36031804Y-83447628D01*
X173577680Y-155218327D02*
X171927680Y-153568327D01*
X34402147Y-80630471D02*
X34914646Y-80630471D01*
X170520065Y-154975942D02*
X153916804Y-154975942D01*
X153916804Y-154975942D02*
X152266804Y-153325942D01*
X35048961Y-83430471D02*
X29064647Y-89414785D01*
X113305500Y-153789171D02*
X111345779Y-155748892D01*
X152266804Y-153325942D02*
X150224158Y-155368588D01*
X114955500Y-155439171D02*
X113305500Y-153789171D01*
X189118932Y-155218327D02*
X173577680Y-155218327D01*
X171927680Y-153568327D02*
X170520065Y-154975942D01*
X75766489Y-155678562D02*
X74116489Y-154028562D01*
X74116489Y-154028562D02*
X72739692Y-155405359D01*
X192366184Y-155271075D02*
X190716184Y-153621075D01*
X150224158Y-155368588D02*
X134231578Y-155368588D01*
%TO.N,Net-(D42-A)*%
X33564647Y-147980440D02*
X33564647Y-141980471D01*
X39603387Y-154019180D02*
X33564647Y-147980440D01*
%TO.N,row1*%
X116564647Y-69880471D02*
X113664647Y-66980471D01*
X93664647Y-66980471D02*
X90164647Y-70480471D01*
X172164647Y-66980471D02*
X169164647Y-69980471D01*
X212164647Y-71380471D02*
X212064647Y-71480471D01*
X133164647Y-66980471D02*
X130164647Y-69980471D01*
X70664647Y-70480471D02*
X56064647Y-70480471D01*
X34402147Y-78030471D02*
X34664647Y-77767971D01*
X188664647Y-69980471D02*
X173564647Y-69980471D01*
X52514647Y-69130471D02*
X54664647Y-66980471D01*
X154564647Y-69980471D02*
X154564647Y-68880471D01*
X130164647Y-69980471D02*
X116564647Y-69980471D01*
X110664647Y-69980471D02*
X96664647Y-69980471D01*
X76064647Y-70480471D02*
X76064647Y-68880471D01*
X197164647Y-71480471D02*
X192164647Y-66480471D01*
X133164647Y-69080471D02*
X133164647Y-66980471D01*
X56064647Y-70480471D02*
X54664647Y-69080471D01*
X34664647Y-77767971D02*
X34664647Y-67480471D01*
X173564647Y-69980471D02*
X173564647Y-68380471D01*
X169164647Y-69980471D02*
X154564647Y-69980471D01*
X34664647Y-67480471D02*
X36314647Y-69130471D01*
X54664647Y-69080471D02*
X54664647Y-66980471D01*
X76064647Y-68880471D02*
X74164647Y-66980471D01*
X152664647Y-66980471D02*
X149664647Y-69980471D01*
X212164647Y-66980471D02*
X212164647Y-71380471D01*
X149664647Y-69980471D02*
X134064647Y-69980471D01*
X96664647Y-69980471D02*
X93664647Y-66980471D01*
X36314647Y-69130471D02*
X52514647Y-69130471D01*
X212064647Y-71480471D02*
X197164647Y-71480471D01*
X90164647Y-70480471D02*
X76064647Y-70480471D01*
X154564647Y-68880471D02*
X152664647Y-66980471D01*
X192164647Y-66480471D02*
X188664647Y-69980471D01*
X113664647Y-66980471D02*
X110664647Y-69980471D01*
X116564647Y-69980471D02*
X116564647Y-69880471D01*
X134064647Y-69980471D02*
X133164647Y-69080471D01*
X173564647Y-68380471D02*
X172164647Y-66980471D01*
X74164647Y-66980471D02*
X70664647Y-70480471D01*
%TO.N,Net-(D1-A)*%
X33564647Y-61580471D02*
X33564647Y-55602386D01*
X39464647Y-67480471D02*
X33564647Y-61580471D01*
%TO.N,Net-(D12-A)*%
X70461789Y-90087481D02*
X64250581Y-83876273D01*
X64250581Y-83876273D02*
X64250581Y-78083799D01*
%TO.N,Net-(D22-A)*%
X60304445Y-111543587D02*
X53211373Y-104450515D01*
X53211373Y-104450515D02*
X53211373Y-99628753D01*
%TO.N,colum8*%
X29064647Y-77692971D02*
X29064647Y-71480471D01*
X26164648Y-68580472D02*
X26164648Y-47986356D01*
X29064647Y-71480471D02*
X26164648Y-68580472D01*
X28270536Y-45880471D02*
X170238982Y-45880471D01*
X170238982Y-45880471D02*
X177420897Y-53062386D01*
X26164648Y-47986356D02*
X28270536Y-45880471D01*
X28727147Y-78030471D02*
X29064647Y-77692971D01*
%TO.N,colum9*%
X27564647Y-77480471D02*
X28564647Y-77480471D01*
X25564647Y-47980471D02*
X28064647Y-45480471D01*
X28564647Y-71546157D02*
X25564647Y-68546156D01*
X27564647Y-78480471D02*
X27564647Y-77480471D01*
X28564647Y-77480471D02*
X28564647Y-71546157D01*
X25564647Y-68546156D02*
X25564647Y-47980471D01*
X27764647Y-78680471D02*
X27564647Y-78480471D01*
X28727147Y-78680471D02*
X27764647Y-78680471D01*
X28064647Y-45480471D02*
X189482732Y-45480471D01*
X189482732Y-45480471D02*
X197064647Y-53062386D01*
%TO.N,colum1*%
X40064647Y-50480471D02*
X39914647Y-50630471D01*
X32564647Y-66480471D02*
X29564647Y-66480471D01*
X40064647Y-49980471D02*
X40064647Y-50480471D01*
X33514647Y-77142971D02*
X33514647Y-67530471D01*
X39914647Y-50630471D02*
X39914647Y-53062386D01*
X29564647Y-66480471D02*
X29564647Y-49980471D01*
X33564647Y-67480471D02*
X32564647Y-66480471D01*
X29564647Y-49980471D02*
X40064647Y-49980471D01*
X33514647Y-67530471D02*
X33564647Y-67480471D01*
%TO.N,colum4*%
X99064647Y-47480471D02*
X99064647Y-48480471D01*
X28933276Y-47480471D02*
X99064647Y-47480471D01*
X27764647Y-66811841D02*
X27764647Y-48649100D01*
X31564647Y-70611841D02*
X27764647Y-66811841D01*
X27764647Y-48649100D02*
X28933276Y-47480471D01*
X99064647Y-48480471D02*
X98845897Y-48699221D01*
X98845897Y-48699221D02*
X98845897Y-53062386D01*
X31564647Y-77142971D02*
X31564647Y-70611841D01*
%TO.N,colum7*%
X150995232Y-46280471D02*
X157777147Y-53062386D01*
X26564647Y-48152042D02*
X28436221Y-46280471D01*
X29614647Y-77142971D02*
X29614647Y-71030471D01*
X29614647Y-71030471D02*
X26564647Y-67980471D01*
X26564647Y-67980471D02*
X26564647Y-48152042D01*
X28436221Y-46280471D02*
X150995232Y-46280471D01*
%TO.N,Net-(D25-A)*%
X121165918Y-111694233D02*
X112174647Y-102702962D01*
X112174647Y-102702962D02*
X112174647Y-99517185D01*
%TO.N,Net-(D15-A)*%
X123184721Y-84140457D02*
X123184721Y-78170471D01*
X129347634Y-90303370D02*
X123184721Y-84140457D01*
%TO.N,Net-(D4-A)*%
X98464647Y-66980471D02*
X92495897Y-61011721D01*
X92495897Y-61011721D02*
X92495897Y-55602386D01*
%TO.N,Net-(D23-A)*%
X80495848Y-111609498D02*
X72991748Y-104105398D01*
X72991748Y-104105398D02*
X72991748Y-99517185D01*
%TO.N,Net-(D26-A)*%
X131610000Y-101969308D02*
X131610000Y-99460000D01*
X142009895Y-111619203D02*
X141259895Y-111619203D01*
X141259895Y-111619203D02*
X131610000Y-101969308D01*
%TO.N,Net-(D38-A)*%
X181953026Y-126992778D02*
X181953026Y-121153789D01*
X188112159Y-133151911D02*
X181953026Y-126992778D01*
%TO.N,Net-(D10-A)*%
X210564647Y-60580471D02*
X210564647Y-55480471D01*
X216964647Y-66980471D02*
X210564647Y-60580471D01*
%TO.N,Net-(D8-A)*%
X176964647Y-66980471D02*
X171070897Y-61086721D01*
X171070897Y-61086721D02*
X171070897Y-55602386D01*
%TO.N,Net-(D51-A)*%
X215401391Y-153434008D02*
X209506259Y-147538876D01*
X209506259Y-147538876D02*
X209506259Y-141552404D01*
%TO.N,Net-(D37-A)*%
X162409557Y-127261295D02*
X162409557Y-121254232D01*
X168873296Y-133725034D02*
X162409557Y-127261295D01*
%TO.N,Net-(D29-A)*%
X198064647Y-105480471D02*
X197469017Y-106076101D01*
X203107486Y-111714570D02*
X197469017Y-106076101D01*
X196788947Y-99480471D02*
X197288947Y-99980471D01*
X190675661Y-99480471D02*
X196788947Y-99480471D01*
X197288947Y-99980471D02*
X198064647Y-99980471D01*
X198064647Y-99980471D02*
X198064647Y-105480471D01*
%TO.N,Net-(D45-A)*%
X98540834Y-154098892D02*
X92431773Y-147989831D01*
X92431773Y-147989831D02*
X92431773Y-141893131D01*
%TO.N,Net-(D6-A)*%
X137964647Y-66980471D02*
X131783397Y-60799221D01*
X131783397Y-60799221D02*
X131783397Y-55602386D01*
%TO.N,Net-(D48-A)*%
X157066804Y-153325942D02*
X150714647Y-146973785D01*
X150714647Y-146973785D02*
X150714647Y-141420709D01*
%TO.N,Net-(D28-A)*%
X180552001Y-111467825D02*
X171255776Y-102171600D01*
X171255776Y-102171600D02*
X171255776Y-99387458D01*
X182497319Y-111467825D02*
X180552001Y-111467825D01*
%TO.N,Net-(D35-A)*%
X129419147Y-133004716D02*
X123212470Y-126798039D01*
X123212470Y-126798039D02*
X123212470Y-120995969D01*
%TO.N,Net-(D24-A)*%
X100989488Y-111496584D02*
X92380734Y-102887830D01*
X92380734Y-102887830D02*
X92380734Y-99517185D01*
%TO.N,Net-(D18-A)*%
X182174647Y-83832356D02*
X182174647Y-77930020D01*
X188322762Y-89980471D02*
X182174647Y-83832356D01*
%TO.N,Net-(D50-A)*%
X195516184Y-153621075D02*
X189779391Y-147884282D01*
X189779391Y-147884282D02*
X189779391Y-141573338D01*
%TO.N,Net-(D3-A)*%
X72852147Y-60867971D02*
X72852147Y-55602386D01*
X78964647Y-66980471D02*
X72852147Y-60867971D01*
%TO.N,Net-(D17-A)*%
X162423590Y-83920191D02*
X162423590Y-78086578D01*
X168491356Y-89987957D02*
X162423590Y-83920191D01*
%TO.N,Net-(D7-A)*%
X157464647Y-66980471D02*
X151427147Y-60942971D01*
X151427147Y-60942971D02*
X151427147Y-55602386D01*
%TO.N,Net-(D5-A)*%
X112139647Y-60655471D02*
X112139647Y-55602386D01*
X118464647Y-66980471D02*
X112139647Y-60655471D01*
%TO.N,Net-(D13-A)*%
X90174582Y-89905275D02*
X83918833Y-83649526D01*
X83918833Y-83649526D02*
X83918833Y-78083799D01*
%TO.N,Net-(D20-A)*%
X221614781Y-84374566D02*
X221614781Y-77897898D01*
X227720686Y-90480471D02*
X221614781Y-84374566D01*
%TO.N,Net-(D27-A)*%
X151754647Y-102095742D02*
X151754647Y-99517185D01*
X161307489Y-111648584D02*
X151754647Y-102095742D01*
X162057489Y-111648584D02*
X161307489Y-111648584D01*
%TO.N,Net-(D49-A)*%
X170324666Y-147165313D02*
X170324666Y-141482624D01*
X176727680Y-153568327D02*
X170324666Y-147165313D01*
%TO.N,Net-(D16-A)*%
X148758455Y-90157742D02*
X142646945Y-84046232D01*
X142646945Y-84046232D02*
X142646945Y-78267188D01*
%TO.N,Net-(D14-A)*%
X103485912Y-83823616D02*
X103485912Y-78136412D01*
X109828545Y-90166249D02*
X103485912Y-83823616D01*
%TO.N,Net-(D9-A)*%
X196964647Y-66480471D02*
X190714647Y-60230471D01*
X190714647Y-60230471D02*
X190714647Y-55602386D01*
%TO.N,Net-(D30-A)*%
X222821558Y-111461315D02*
X217214647Y-105854404D01*
X217082787Y-99385325D02*
X210458830Y-99385325D01*
X217214647Y-99517185D02*
X217082787Y-99385325D01*
X217214647Y-105854404D02*
X217214647Y-99517185D01*
%TO.N,Net-(D34-A)*%
X103414193Y-127388171D02*
X103414193Y-121261051D01*
X109507830Y-133481808D02*
X103414193Y-127388171D01*
%TO.N,Net-(D43-A)*%
X53080974Y-147694485D02*
X53080974Y-141615068D01*
X59141848Y-153755359D02*
X53080974Y-147694485D01*
%TO.N,Net-(D33-A)*%
X89864647Y-132980471D02*
X83682070Y-126797894D01*
X83682070Y-126797894D02*
X83682070Y-121361232D01*
%TO.N,Net-(D2-A)*%
X53208397Y-60724221D02*
X53208397Y-55602386D01*
X59464647Y-66980471D02*
X53208397Y-60724221D01*
%TO.N,Net-(D40-A)*%
X201668313Y-126626673D02*
X201668313Y-120994792D01*
X207928754Y-132887114D02*
X201668313Y-126626673D01*
%TD*%
M02*
