%TF.GenerationSoftware,KiCad,Pcbnew,10.0.3*%
%TF.CreationDate,2026-07-25T14:42:44+03:00*%
%TF.ProjectId,cyberdeck radio,63796265-7264-4656-936b-20726164696f,rev?*%
%TF.SameCoordinates,Original*%
%TF.FileFunction,Soldermask,Top*%
%TF.FilePolarity,Negative*%
%FSLAX46Y46*%
G04 Gerber Fmt 4.6, Leading zero omitted, Abs format (unit mm)*
G04 Created by KiCad (PCBNEW 10.0.3) date 2026-07-25 14:42:44*
%MOMM*%
%LPD*%
G01*
G04 APERTURE LIST*
G04 Aperture macros list*
%AMRoundRect*
0 Rectangle with rounded corners*
0 $1 Rounding radius*
0 $2 $3 $4 $5 $6 $7 $8 $9 X,Y pos of 4 corners*
0 Add a 4 corners polygon primitive as box body*
4,1,4,$2,$3,$4,$5,$6,$7,$8,$9,$2,$3,0*
0 Add four circle primitives for the rounded corners*
1,1,$1+$1,$2,$3*
1,1,$1+$1,$4,$5*
1,1,$1+$1,$6,$7*
1,1,$1+$1,$8,$9*
0 Add four rect primitives between the rounded corners*
20,1,$1+$1,$2,$3,$4,$5,0*
20,1,$1+$1,$4,$5,$6,$7,0*
20,1,$1+$1,$6,$7,$8,$9,0*
20,1,$1+$1,$8,$9,$2,$3,0*%
G04 Aperture macros list end*
%ADD10RoundRect,0.250000X-0.500000X-1.100000X0.500000X-1.100000X0.500000X1.100000X-0.500000X1.100000X0*%
%ADD11C,1.700000*%
%ADD12C,4.000000*%
%ADD13C,2.200000*%
%ADD14C,2.100000*%
%ADD15RoundRect,0.075000X-0.437500X-0.075000X0.437500X-0.075000X0.437500X0.075000X-0.437500X0.075000X0*%
%ADD16RoundRect,0.075000X-0.075000X-0.437500X0.075000X-0.437500X0.075000X0.437500X-0.075000X0.437500X0*%
%ADD17R,4.250000X4.250000*%
G04 APERTURE END LIST*
D10*
%TO.C,D21*%
X35164647Y-111980471D03*
X39964647Y-111980471D03*
%TD*%
%TO.C,D32*%
X65509147Y-133034028D03*
X70309147Y-133034028D03*
%TD*%
%TO.C,D11*%
X45699386Y-89763391D03*
X50499386Y-89763391D03*
%TD*%
D11*
%TO.C,SW36*%
X141427296Y-123555240D03*
D12*
X146507296Y-123555240D03*
D11*
X151587296Y-123555240D03*
D13*
X149047296Y-118475240D03*
X142697296Y-121015240D03*
%TD*%
D11*
%TO.C,SW44*%
X71549802Y-144723792D03*
D12*
X76629802Y-144723792D03*
D11*
X81709802Y-144723792D03*
D13*
X79169802Y-139643792D03*
X72819802Y-142183792D03*
%TD*%
D10*
%TO.C,D31*%
X46498554Y-133237350D03*
X51298554Y-133237350D03*
%TD*%
D11*
%TO.C,SW41*%
X219842986Y-123375764D03*
D12*
X224922986Y-123375764D03*
D11*
X230002986Y-123375764D03*
D13*
X227462986Y-118295764D03*
X221112986Y-120835764D03*
%TD*%
D10*
%TO.C,D19*%
X203120976Y-89843096D03*
X207920976Y-89843096D03*
%TD*%
D11*
%TO.C,SW47*%
X129883991Y-144236108D03*
D12*
X134963991Y-144236108D03*
D11*
X140043991Y-144236108D03*
D13*
X137503991Y-139156108D03*
X131153991Y-141696108D03*
%TD*%
D10*
%TO.C,D36*%
X143845060Y-132536315D03*
X148645060Y-132536315D03*
%TD*%
D14*
%TO.C,REF\u002A\u002A*%
X233945561Y-46686214D03*
%TD*%
D11*
%TO.C,SW46*%
X110592662Y-144272986D03*
D12*
X115672662Y-144272986D03*
D11*
X120752662Y-144272986D03*
D13*
X118212662Y-139192986D03*
X111862662Y-141732986D03*
%TD*%
D11*
%TO.C,SW32*%
X62835390Y-123737240D03*
D12*
X67915390Y-123737240D03*
D11*
X72995390Y-123737240D03*
D13*
X70455390Y-118657240D03*
X64105390Y-121197240D03*
%TD*%
D10*
%TO.C,D42*%
X34803387Y-154019180D03*
X39603387Y-154019180D03*
%TD*%
%TO.C,D1*%
X34664647Y-67480471D03*
X39464647Y-67480471D03*
%TD*%
D11*
%TO.C,SW12*%
X62980581Y-80623799D03*
D12*
X68060581Y-80623799D03*
D11*
X73140581Y-80623799D03*
D13*
X70600581Y-75543799D03*
X64250581Y-78083799D03*
%TD*%
D10*
%TO.C,D22*%
X55504445Y-111543587D03*
X60304445Y-111543587D03*
%TD*%
D15*
%TO.C,U2*%
X28727147Y-78030471D03*
X28727147Y-78680471D03*
X28727147Y-79330471D03*
X28727147Y-79980471D03*
X28727147Y-80630471D03*
X28727147Y-81280471D03*
X28727147Y-81930471D03*
D16*
X29614647Y-82817971D03*
X30264647Y-82817971D03*
X30914647Y-82817971D03*
X31564647Y-82817971D03*
X32214647Y-82817971D03*
X32864647Y-82817971D03*
X33514647Y-82817971D03*
D15*
X34402147Y-81930471D03*
X34402147Y-81280471D03*
X34402147Y-80630471D03*
X34402147Y-79980471D03*
X34402147Y-79330471D03*
X34402147Y-78680471D03*
X34402147Y-78030471D03*
D16*
X33514647Y-77142971D03*
X32864647Y-77142971D03*
X32214647Y-77142971D03*
X31564647Y-77142971D03*
X30914647Y-77142971D03*
X30264647Y-77142971D03*
X29614647Y-77142971D03*
D17*
X31564647Y-79980471D03*
%TD*%
D14*
%TO.C,REF\u002A\u002A*%
X233500000Y-155000000D03*
%TD*%
D11*
%TO.C,SW25*%
X110904647Y-102057185D03*
D12*
X115984647Y-102057185D03*
D11*
X121064647Y-102057185D03*
D13*
X118524647Y-96977185D03*
X112174647Y-99517185D03*
%TD*%
D10*
%TO.C,D25*%
X116365918Y-111694233D03*
X121165918Y-111694233D03*
%TD*%
%TO.C,D15*%
X124547634Y-90303370D03*
X129347634Y-90303370D03*
%TD*%
D11*
%TO.C,SW4*%
X91225897Y-58142386D03*
D12*
X96305897Y-58142386D03*
D11*
X101385897Y-58142386D03*
D13*
X98845897Y-53062386D03*
X92495897Y-55602386D03*
%TD*%
D10*
%TO.C,D23*%
X75695848Y-111609498D03*
X80495848Y-111609498D03*
%TD*%
D11*
%TO.C,SW26*%
X130340000Y-102000000D03*
D12*
X135420000Y-102000000D03*
D11*
X140500000Y-102000000D03*
D13*
X137960000Y-96920000D03*
X131610000Y-99460000D03*
%TD*%
D10*
%TO.C,D41*%
X222179250Y-133063235D03*
X226979250Y-133063235D03*
%TD*%
D11*
%TO.C,SW38*%
X180683026Y-123693789D03*
D12*
X185763026Y-123693789D03*
D11*
X190843026Y-123693789D03*
D13*
X188303026Y-118613789D03*
X181953026Y-121153789D03*
%TD*%
D11*
%TO.C,SW10*%
X209294647Y-58020471D03*
D12*
X214374647Y-58020471D03*
D11*
X219454647Y-58020471D03*
D13*
X216914647Y-52940471D03*
X210564647Y-55480471D03*
%TD*%
D11*
%TO.C,SW8*%
X169800897Y-58142386D03*
D12*
X174880897Y-58142386D03*
D11*
X179960897Y-58142386D03*
D13*
X177420897Y-53062386D03*
X171070897Y-55602386D03*
%TD*%
D10*
%TO.C,D47*%
X132581578Y-153718588D03*
X137381578Y-153718588D03*
%TD*%
D11*
%TO.C,SW51*%
X208236259Y-144092404D03*
D12*
X213316259Y-144092404D03*
D11*
X218396259Y-144092404D03*
D13*
X215856259Y-139012404D03*
X209506259Y-141552404D03*
%TD*%
D10*
%TO.C,D8*%
X172164647Y-66980471D03*
X176964647Y-66980471D03*
%TD*%
%TO.C,D37*%
X164073296Y-133725034D03*
X168873296Y-133725034D03*
%TD*%
D14*
%TO.C,REF\u002A\u002A*%
X25500000Y-155500000D03*
%TD*%
D10*
%TO.C,D29*%
X198307486Y-111714570D03*
X203107486Y-111714570D03*
%TD*%
%TO.C,D45*%
X93740834Y-154098892D03*
X98540834Y-154098892D03*
%TD*%
D11*
%TO.C,SW23*%
X71721748Y-102057185D03*
D12*
X76801748Y-102057185D03*
D11*
X81881748Y-102057185D03*
D13*
X79341748Y-96977185D03*
X72991748Y-99517185D03*
%TD*%
D11*
%TO.C,SW42*%
X32294647Y-144520471D03*
D12*
X37374647Y-144520471D03*
D11*
X42454647Y-144520471D03*
D13*
X39914647Y-139440471D03*
X33564647Y-141980471D03*
%TD*%
D14*
%TO.C,REF\u002A\u002A*%
X234000000Y-100000000D03*
%TD*%
D11*
%TO.C,SW45*%
X91161773Y-144433131D03*
D12*
X96241773Y-144433131D03*
D11*
X101321773Y-144433131D03*
D13*
X98781773Y-139353131D03*
X92431773Y-141893131D03*
%TD*%
D14*
%TO.C,REF\u002A\u002A*%
X25500000Y-116500000D03*
%TD*%
%TO.C,REF\u002A\u002A*%
X25499201Y-43998402D03*
%TD*%
D10*
%TO.C,D6*%
X133164647Y-66980471D03*
X137964647Y-66980471D03*
%TD*%
D11*
%TO.C,SW15*%
X121914721Y-80710471D03*
D12*
X126994721Y-80710471D03*
D11*
X132074721Y-80710471D03*
D13*
X129534721Y-75630471D03*
X123184721Y-78170471D03*
%TD*%
D10*
%TO.C,D48*%
X152266804Y-153325942D03*
X157066804Y-153325942D03*
%TD*%
%TO.C,D28*%
X177697319Y-111467825D03*
X182497319Y-111467825D03*
%TD*%
%TO.C,D35*%
X124619147Y-133004716D03*
X129419147Y-133004716D03*
%TD*%
%TO.C,D24*%
X96189488Y-111496584D03*
X100989488Y-111496584D03*
%TD*%
D11*
%TO.C,SW18*%
X180904647Y-80470020D03*
D12*
X185984647Y-80470020D03*
D11*
X191064647Y-80470020D03*
D13*
X188524647Y-75390020D03*
X182174647Y-77930020D03*
%TD*%
D11*
%TO.C,SW50*%
X188509391Y-144113338D03*
D12*
X193589391Y-144113338D03*
D11*
X198669391Y-144113338D03*
D13*
X196129391Y-139033338D03*
X189779391Y-141573338D03*
%TD*%
D11*
%TO.C,SW48*%
X149444647Y-143960709D03*
D12*
X154524647Y-143960709D03*
D11*
X159604647Y-143960709D03*
D13*
X157064647Y-138880709D03*
X150714647Y-141420709D03*
%TD*%
D11*
%TO.C,SW3*%
X71582147Y-58142386D03*
D12*
X76662147Y-58142386D03*
D11*
X81742147Y-58142386D03*
D13*
X79202147Y-53062386D03*
X72852147Y-55602386D03*
%TD*%
D11*
%TO.C,SW1*%
X32294647Y-58142386D03*
D12*
X37374647Y-58142386D03*
D11*
X42454647Y-58142386D03*
D13*
X39914647Y-53062386D03*
X33564647Y-55602386D03*
%TD*%
D11*
%TO.C,SW17*%
X161153590Y-80626578D03*
D12*
X166233590Y-80626578D03*
D11*
X171313590Y-80626578D03*
D13*
X168773590Y-75546578D03*
X162423590Y-78086578D03*
%TD*%
D11*
%TO.C,SW6*%
X130513397Y-58142386D03*
D12*
X135593397Y-58142386D03*
D11*
X140673397Y-58142386D03*
D13*
X138133397Y-53062386D03*
X131783397Y-55602386D03*
%TD*%
D10*
%TO.C,D7*%
X152664647Y-66980471D03*
X157464647Y-66980471D03*
%TD*%
D11*
%TO.C,SW5*%
X110869647Y-58142386D03*
D12*
X115949647Y-58142386D03*
D11*
X121029647Y-58142386D03*
D13*
X118489647Y-53062386D03*
X112139647Y-55602386D03*
%TD*%
D11*
%TO.C,SW29*%
X189405661Y-102020471D03*
D12*
X194485661Y-102020471D03*
D11*
X199565661Y-102020471D03*
D13*
X197025661Y-96940471D03*
X190675661Y-99480471D03*
%TD*%
D11*
%TO.C,SW13*%
X82648833Y-80623799D03*
D12*
X87728833Y-80623799D03*
D11*
X92808833Y-80623799D03*
D13*
X90268833Y-75543799D03*
X83918833Y-78083799D03*
%TD*%
D10*
%TO.C,D18*%
X183522762Y-89980471D03*
X188322762Y-89980471D03*
%TD*%
D11*
%TO.C,SW20*%
X220344781Y-80437898D03*
D12*
X225424781Y-80437898D03*
D11*
X230504781Y-80437898D03*
D13*
X227964781Y-75357898D03*
X221614781Y-77897898D03*
%TD*%
D10*
%TO.C,D27*%
X157257489Y-111648584D03*
X162057489Y-111648584D03*
%TD*%
%TO.C,D49*%
X171927680Y-153568327D03*
X176727680Y-153568327D03*
%TD*%
D11*
%TO.C,SW16*%
X141376945Y-80807188D03*
D12*
X146456945Y-80807188D03*
D11*
X151536945Y-80807188D03*
D13*
X148996945Y-75727188D03*
X142646945Y-78267188D03*
%TD*%
D11*
%TO.C,SW21*%
X32443777Y-102057185D03*
D12*
X37523777Y-102057185D03*
D11*
X42603777Y-102057185D03*
D13*
X40063777Y-96977185D03*
X33713777Y-99517185D03*
%TD*%
D10*
%TO.C,D10*%
X212164647Y-66980471D03*
X216964647Y-66980471D03*
%TD*%
%TO.C,D14*%
X105028545Y-90166249D03*
X109828545Y-90166249D03*
%TD*%
D11*
%TO.C,SW31*%
X43236188Y-123965951D03*
D12*
X48316188Y-123965951D03*
D11*
X53396188Y-123965951D03*
D13*
X50856188Y-118885951D03*
X44506188Y-121425951D03*
%TD*%
D11*
%TO.C,SW9*%
X189444647Y-58142386D03*
D12*
X194524647Y-58142386D03*
D11*
X199604647Y-58142386D03*
D13*
X197064647Y-53062386D03*
X190714647Y-55602386D03*
%TD*%
D10*
%TO.C,D3*%
X74164647Y-66980471D03*
X78964647Y-66980471D03*
%TD*%
%TO.C,D44*%
X74116489Y-154028562D03*
X78916489Y-154028562D03*
%TD*%
D11*
%TO.C,SW30*%
X209188830Y-101925325D03*
D12*
X214268830Y-101925325D03*
D11*
X219348830Y-101925325D03*
D13*
X216808830Y-96845325D03*
X210458830Y-99385325D03*
%TD*%
D10*
%TO.C,D34*%
X104707830Y-133481808D03*
X109507830Y-133481808D03*
%TD*%
D11*
%TO.C,SW43*%
X51810974Y-144155068D03*
D12*
X56890974Y-144155068D03*
D11*
X61970974Y-144155068D03*
D13*
X59430974Y-139075068D03*
X53080974Y-141615068D03*
%TD*%
D11*
%TO.C,SW37*%
X161139557Y-123794232D03*
D12*
X166219557Y-123794232D03*
D11*
X171299557Y-123794232D03*
D13*
X168759557Y-118714232D03*
X162409557Y-121254232D03*
%TD*%
D11*
%TO.C,SW22*%
X51941373Y-102168753D03*
D12*
X57021373Y-102168753D03*
D11*
X62101373Y-102168753D03*
D13*
X59561373Y-97088753D03*
X53211373Y-99628753D03*
%TD*%
D10*
%TO.C,D16*%
X143958455Y-90157742D03*
X148758455Y-90157742D03*
%TD*%
%TO.C,D46*%
X113305500Y-153789171D03*
X118105500Y-153789171D03*
%TD*%
D11*
%TO.C,SW34*%
X102144193Y-123801051D03*
D12*
X107224193Y-123801051D03*
D11*
X112304193Y-123801051D03*
D13*
X109764193Y-118721051D03*
X103414193Y-121261051D03*
%TD*%
D10*
%TO.C,D12*%
X65661789Y-90087481D03*
X70461789Y-90087481D03*
%TD*%
%TO.C,D33*%
X85064647Y-132980471D03*
X89864647Y-132980471D03*
%TD*%
%TO.C,D2*%
X54664647Y-66980471D03*
X59464647Y-66980471D03*
%TD*%
%TO.C,D5*%
X113664647Y-66980471D03*
X118464647Y-66980471D03*
%TD*%
%TO.C,D38*%
X183312159Y-133151911D03*
X188112159Y-133151911D03*
%TD*%
D11*
%TO.C,SW40*%
X200398313Y-123534792D03*
D12*
X205478313Y-123534792D03*
D11*
X210558313Y-123534792D03*
D13*
X208018313Y-118454792D03*
X201668313Y-120994792D03*
%TD*%
D10*
%TO.C,D17*%
X163691356Y-89987957D03*
X168491356Y-89987957D03*
%TD*%
D11*
%TO.C,SW2*%
X51938397Y-58142386D03*
D12*
X57018397Y-58142386D03*
D11*
X62098397Y-58142386D03*
D13*
X59558397Y-53062386D03*
X53208397Y-55602386D03*
%TD*%
D11*
%TO.C,SW27*%
X150484647Y-102057185D03*
D12*
X155564647Y-102057185D03*
D11*
X160644647Y-102057185D03*
D13*
X158104647Y-96977185D03*
X151754647Y-99517185D03*
%TD*%
D10*
%TO.C,D40*%
X203128754Y-132887114D03*
X207928754Y-132887114D03*
%TD*%
%TO.C,D26*%
X137209895Y-111619203D03*
X142009895Y-111619203D03*
%TD*%
D11*
%TO.C,SW28*%
X169985776Y-101927458D03*
D12*
X175065776Y-101927458D03*
D11*
X180145776Y-101927458D03*
D13*
X177605776Y-96847458D03*
X171255776Y-99387458D03*
%TD*%
D10*
%TO.C,D43*%
X54341848Y-153755359D03*
X59141848Y-153755359D03*
%TD*%
%TO.C,D51*%
X210601391Y-153434008D03*
X215401391Y-153434008D03*
%TD*%
D11*
%TO.C,SW24*%
X91110734Y-102057185D03*
D12*
X96190734Y-102057185D03*
D11*
X101270734Y-102057185D03*
D13*
X98730734Y-96977185D03*
X92380734Y-99517185D03*
%TD*%
D11*
%TO.C,SW11*%
X43294647Y-80520471D03*
D12*
X48374647Y-80520471D03*
D11*
X53454647Y-80520471D03*
D13*
X50914647Y-75440471D03*
X44564647Y-77980471D03*
%TD*%
D11*
%TO.C,SW19*%
X200766951Y-80601729D03*
D12*
X205846951Y-80601729D03*
D11*
X210926951Y-80601729D03*
D13*
X208386951Y-75521729D03*
X202036951Y-78061729D03*
%TD*%
D11*
%TO.C,SW7*%
X150157147Y-58142386D03*
D12*
X155237147Y-58142386D03*
D11*
X160317147Y-58142386D03*
D13*
X157777147Y-53062386D03*
X151427147Y-55602386D03*
%TD*%
D11*
%TO.C,SW35*%
X121942470Y-123535969D03*
D12*
X127022470Y-123535969D03*
D11*
X132102470Y-123535969D03*
D13*
X129562470Y-118455969D03*
X123212470Y-120995969D03*
%TD*%
D10*
%TO.C,D4*%
X93664647Y-66980471D03*
X98464647Y-66980471D03*
%TD*%
D11*
%TO.C,SW33*%
X82412070Y-123901232D03*
D12*
X87492070Y-123901232D03*
D11*
X92572070Y-123901232D03*
D13*
X90032070Y-118821232D03*
X83682070Y-121361232D03*
%TD*%
D11*
%TO.C,SW14*%
X102215912Y-80676412D03*
D12*
X107295912Y-80676412D03*
D11*
X112375912Y-80676412D03*
D13*
X109835912Y-75596412D03*
X103485912Y-78136412D03*
%TD*%
D11*
%TO.C,SW49*%
X169054666Y-144022624D03*
D12*
X174134666Y-144022624D03*
D11*
X179214666Y-144022624D03*
D13*
X176674666Y-138942624D03*
X170324666Y-141482624D03*
%TD*%
D10*
%TO.C,D50*%
X190716184Y-153621075D03*
X195516184Y-153621075D03*
%TD*%
%TO.C,D30*%
X218021558Y-111461315D03*
X222821558Y-111461315D03*
%TD*%
%TO.C,D9*%
X192164647Y-66480471D03*
X196964647Y-66480471D03*
%TD*%
%TO.C,D13*%
X85374582Y-89905275D03*
X90174582Y-89905275D03*
%TD*%
%TO.C,D20*%
X222920686Y-90480471D03*
X227720686Y-90480471D03*
%TD*%
M02*
