M48
; DRILL file KiCad 10.0.3 date 2026-07-25T14:43:45
; FORMAT={-:-/ absolute / metric / decimal}
; #@! TF.CreationDate,2026-07-25T14:43:45+03:00
; #@! TF.GenerationSoftware,Kicad,Pcbnew,10.0.3
; #@! TF.FileFunction,NonPlated,1,2,NPTH
FMAT,2
METRIC
; #@! TA.AperFunction,NonPlated,NPTH,ComponentDrill
T1C1.700
; #@! TA.AperFunction,NonPlated,NPTH,ComponentDrill
T2C2.100
; #@! TA.AperFunction,NonPlated,NPTH,ComponentDrill
T3C4.000
%
G90
G05
T1
X32.295Y-58.142
X32.295Y-144.52
X32.444Y-102.057
X42.455Y-58.142
X42.455Y-144.52
X42.604Y-102.057
X43.236Y-123.966
X43.295Y-80.52
X51.811Y-144.155
X51.938Y-58.142
X51.941Y-102.169
X53.396Y-123.966
X53.455Y-80.52
X61.971Y-144.155
X62.098Y-58.142
X62.101Y-102.169
X62.835Y-123.737
X62.981Y-80.624
X71.55Y-144.724
X71.582Y-58.142
X71.722Y-102.057
X72.995Y-123.737
X73.141Y-80.624
X81.71Y-144.724
X81.742Y-58.142
X81.882Y-102.057
X82.412Y-123.901
X82.649Y-80.624
X91.111Y-102.057
X91.162Y-144.433
X91.226Y-58.142
X92.572Y-123.901
X92.809Y-80.624
X101.271Y-102.057
X101.322Y-144.433
X101.386Y-58.142
X102.144Y-123.801
X102.216Y-80.676
X110.593Y-144.273
X110.87Y-58.142
X110.905Y-102.057
X112.304Y-123.801
X112.376Y-80.676
X120.753Y-144.273
X121.03Y-58.142
X121.065Y-102.057
X121.915Y-80.71
X121.942Y-123.536
X129.884Y-144.236
X130.34Y-102.0
X130.513Y-58.142
X132.075Y-80.71
X132.102Y-123.536
X140.044Y-144.236
X140.5Y-102.0
X140.673Y-58.142
X141.377Y-80.807
X141.427Y-123.555
X149.445Y-143.961
X150.157Y-58.142
X150.485Y-102.057
X151.537Y-80.807
X151.587Y-123.555
X159.605Y-143.961
X160.317Y-58.142
X160.645Y-102.057
X161.14Y-123.794
X161.154Y-80.627
X169.055Y-144.023
X169.801Y-58.142
X169.986Y-101.927
X171.3Y-123.794
X171.314Y-80.627
X179.215Y-144.023
X179.961Y-58.142
X180.146Y-101.927
X180.683Y-123.694
X180.905Y-80.47
X188.509Y-144.113
X189.406Y-102.02
X189.445Y-58.142
X190.843Y-123.694
X191.065Y-80.47
X198.669Y-144.113
X199.566Y-102.02
X199.605Y-58.142
X200.398Y-123.535
X200.767Y-80.602
X208.236Y-144.092
X209.189Y-101.925
X209.295Y-58.02
X210.558Y-123.535
X210.927Y-80.602
X218.396Y-144.092
X219.349Y-101.925
X219.455Y-58.02
X219.843Y-123.376
X220.345Y-80.438
X230.003Y-123.376
X230.505Y-80.438
T2
X25.499Y-43.998
X25.5Y-116.5
X25.5Y-155.5
X233.5Y-155.0
X233.946Y-46.686
X234.0Y-100.0
T3
X37.375Y-58.142
X37.375Y-144.52
X37.524Y-102.057
X48.316Y-123.966
X48.375Y-80.52
X56.891Y-144.155
X57.018Y-58.142
X57.021Y-102.169
X67.915Y-123.737
X68.061Y-80.624
X76.63Y-144.724
X76.662Y-58.142
X76.802Y-102.057
X87.492Y-123.901
X87.729Y-80.624
X96.191Y-102.057
X96.242Y-144.433
X96.306Y-58.142
X107.224Y-123.801
X107.296Y-80.676
X115.673Y-144.273
X115.95Y-58.142
X115.985Y-102.057
X126.995Y-80.71
X127.022Y-123.536
X134.964Y-144.236
X135.42Y-102.0
X135.593Y-58.142
X146.457Y-80.807
X146.507Y-123.555
X154.525Y-143.961
X155.237Y-58.142
X155.565Y-102.057
X166.22Y-123.794
X166.234Y-80.627
X174.135Y-144.023
X174.881Y-58.142
X175.066Y-101.927
X185.763Y-123.694
X185.985Y-80.47
X193.589Y-144.113
X194.486Y-102.02
X194.525Y-58.142
X205.478Y-123.535
X205.847Y-80.602
X213.316Y-144.092
X214.269Y-101.925
X214.375Y-58.02
X224.923Y-123.376
X225.425Y-80.438
M30
